<?xml version="1.0" encoding="utf-8"?>
<!DOCTYPE svg PUBLIC "-//W3C//DTD SVG 1.1//EN" "http://www.w3.org/Graphics/SVG/1.1/DTD/svg11.dtd">
<svg version="1.1" id="Layer_1" xmlns="http://www.w3.org/2000/svg" xmlns:xlink="http://www.w3.org/1999/xlink" x="0px" y="0px"
	 width="178px" height="123.5px" viewBox="0 0 178 123.5" style="enable-background:new 0 0 178 123.5;" xml:space="preserve">
<path style="fill:#FFFFFF;" d="M76.9,13.4c-5.9,0.7-15.1-0.9-27.5-5.1c-9.8,6.3-17.3,15.4-22.5,27.2c4.6-1.4,8.4-5,11.4-10.9
	c0.1,7.1-4.1,11.7-12.7,14c-3.1,8.2-4.2,16-3.2,23.4c0.6,5.1,2.4,9,5.3,11.7C31,76.7,35,77.8,40,77.2c3.4-0.4,6.5-1.5,9.6-3.1
	c3-1.7,5.8-4,8.4-7c0.5-0.5,3.1-4.3,7.8-11.4c0.4-0.6,0.7-1,0.9-1c0.6-0.1,0.9,0.2,1,0.7c0,0.3-0.1,0.7-0.3,1.2
	c-7.4,13.6-16.4,21-26.8,22.3c-1.8,0.2-3.7,0.2-5.6,0c-1.9-0.2-3.7-0.7-5.4-1.4c-1.8-0.7-3.4-1.6-4.9-2.7c-1.5-1.1-2.8-2.4-3.9-3.8
	c-2.6-3.3-4.2-7.6-4.9-12.8c-0.7-5.9-0.1-12.1,2-18.5c-2.3,0-4.4-0.4-6.4-1.1c-2-0.7-3.8-1.7-5.3-3c-1.5-1.3-2.8-2.8-3.9-4.5
	c-1-1.7-1.7-3.7-1.9-5.8C-1.5,10,3.7,1.7,16.1,0.2c6.3-0.8,17.2,1,32.7,5.4c4.5-2.3,9.9-3.8,16-4.6c3.6-0.5,7-0.3,10.2,0.6
	c4,0.9,6.9,2.7,8.5,5.3c0.4,0.6,0.5,1.3,0.3,2C83,11.4,80.8,12.9,76.9,13.4L76.9,13.4z M32,3.7c-6.2-1.4-11.4-1.8-15.6-1.3
	C6.5,3.6,2.4,10.8,4,24c0.5,3.8,2.2,6.8,5.2,8.9c2.6,1.9,5.8,3,9.8,3.3c2.4-6,6.8-12,13.1-18.2c4.7-4.7,9.4-8.5,14.2-11.3L32,3.7z
	 M81.4,6.8c-2-3.4-7.3-4.9-15.9-4.5c-1.9,0-4,0.4-6.2,1.1c-2.2,0.8-4.5,1.8-6.9,3.2c9.7,3.9,18.7,5.4,26.9,4.4
	c1.7,0,2.5-1.2,2.2-3.5L81.4,6.8z"/>
<path style="fill:#FFFFFF;" d="M102.3,59.2c-2.2,4.3-4.7,6.7-7.5,7c-3.7,0.5-5.9-1.1-6.8-4.6c-3,3.5-6.1,5.4-9.3,5.8
	c-4.6,0.6-7.3-2-8-7.7c-0.8-6.7,1.4-13.3,6.6-20.1c3.3-4.3,6.9-6.7,10.6-7.1c3.4-0.4,5.8,0.9,7,4.1l0.5-0.6c1.5-1.7,3.7-2.5,6.8-2.6
	c-2.3,4.7-4.2,9-5.7,12.9c-1.5,3.9-2.6,7.3-3.3,10.4c-0.9,3.5-0.9,5.8-0.3,7c0.3,0.7,0.9,1,1.6,0.9c2.7-0.3,6.5-5.7,11.4-16.1
	c0.4-0.6,0.8-0.6,1.3-0.3c0.5,0.4,0.6,0.9,0.2,1.4L102.3,59.2z M87.3,34.9c-2.5,0.3-4.8,2.4-7,6.4c-4.1,7-5.8,13.5-5,19.3
	c0.4,3.2,1.7,4.6,3.9,4.3c4.3-0.5,7.7-5.6,10.1-15.2c1.2-4.5,1.6-8.2,1.2-11.1C90.1,36,89.1,34.7,87.3,34.9L87.3,34.9z"/>
<path style="fill:#FFFFFF;" d="M125.5,56.6c-3.3,4.4-6.7,6.8-10.5,7.3c-3.3,0.4-5.6-0.7-7-3.5c-14.7,38.8-33.9,59.7-57.5,62.7
	c-13.3,1.7-20.9-2.7-23-13.2c-1.1-5.4,0.4-10.2,4.5-14.4c1.8-1.9,3.9-3.4,6.2-4.5c2.3-1.1,4.9-1.6,7.8-1.8
	c10.5-0.6,16.6,2.8,18.2,10.1c-0.1-0.1-0.2-0.3-0.4-0.6c-0.2-0.3-0.5-0.6-1-1.1c-3.9-4.8-9.4-6.7-16.5-5.6
	c-4.5,0.6-8.3,2.5-11.4,5.6c-3.2,3.2-4.5,7.1-3.8,11.5c0.7,4.6,2.7,7.8,6,9.8c3.3,2,7.3,2.7,12,2c14.5-2,27.5-12.4,39-31.3
	c3.6-6.1,7.1-13.2,10.6-21.2c3.4-8,6.8-17.1,10.1-27.4c0.8-4.7,0.5-7.8-1-9.3c-0.8-0.7-1.6-1-2.5-1c4.5-0.4,7.2,1.3,8.2,5.1
	c3.4-4.4,6.9-6.8,10.5-7.2c4.7-0.6,7.4,2,8.1,7.7C133,43,130.8,49.7,125.5,56.6L125.5,56.6z M123.5,31.4c-2.3,0.3-4.6,2.4-7,6.4
	c-1.9,3.5-3.3,6.9-4.2,10c-0.8,3.2-1.1,6.2-0.7,9.1c0.4,3.2,1.6,4.6,3.7,4.4c4.3-0.5,7.7-5.6,10.2-15.2c1.2-4.5,1.6-8.1,1.2-10.9
	C126.4,32.4,125.3,31.1,123.5,31.4L123.5,31.4z"/>
<path style="fill:#FFFFFF;" d="M143.2,11.4c-0.7,2.6-2,4.9-3.9,7l-1.5,1.6c-0.2,0.1-0.5,0.3-0.7,0.5c-0.2,0.2-0.5,0.5-0.9,0.8
	c-0.4,0.2-0.6,0.2-0.7-0.1c-0.1-0.1-0.1-0.4,0.1-1l1-1.2c2.4-2.4,4-6.5,4.7-12.3c-0.3,0.4-1,0.7-2,0.8c-1.3,0.2-2-0.3-2.1-1.5
	c0-0.2,0-0.4,0-0.7c0-0.2,0-0.5,0-0.8c0.5-2.3,1.6-3.5,3.2-3.7c0.8-0.1,1.3,0.1,1.6,0.5c0.8,0.3,1.6,0.7,2.5,1.4
	C144.1,6.8,143.7,9.7,143.2,11.4L143.2,11.4z"/>
<path style="fill:#FFFFFF;" d="M163.2,58.3c-3.6,0.5-5.6-1.1-6.1-4.6c-0.3-2.3-0.3-3.8-0.2-4.5c2.9-6.8,4.3-13,4.3-18.5
	c0.2-2.8-0.8-4.1-2.8-3.8c-3.4,0.4-6.9,4.1-10.5,11.2c-0.9,2.6-2,5.8-3.2,9.6c-1.3,3.8-2.8,8.3-4.6,13.5c-0.7,0.1-1.3-0.4-1.9-1.5
	c-0.2-0.2-0.1-2.9,0.2-7.9c0-0.6,0.3-1.6,0.7-2.9c0.4-1.3,0.9-2.9,1.6-4.7l-0.1,0c0-0.3,0.8-2.3,2.5-5.8c1-2.5,1.5-4.2,1.5-5.1
	c-0.1-1.1-0.8-2.3-2-3.7c-0.1,0-0.2-0.1-0.2-0.3c-0.1-1,2.2-1.7,6.9-2.3c-0.1,0.5-0.1,1,0,1.6c0,0.6,0,1.3,0,2.1
	c3.4-3.7,6.9-5.8,10.4-6.2c4-0.5,6.3,1.4,6.8,5.6c0.5,3.7-0.6,9.5-3.2,17.5c0,0.3-0.1,0.6-0.3,0.9c-0.9,2.8-1.4,4.9-1.4,6.2
	c-0.1,0.5,0,0.8,0.3,1.1c0.1,0.6,0.6,0.9,1.4,0.8c2.5-0.3,7-5.8,13.3-16.5c0.4-0.6,0.8-0.6,1.3-0.2c0.3,0.4,0.4,0.9,0.2,1.3
	C171.2,52.2,166.3,57.9,163.2,58.3L163.2,58.3z"/>
</svg>
