<svg xmlns="http://www.w3.org/2000/svg" width="192" height="86" viewBox="0 0 192 86">
    <pattern x="-50" y="-128" width="30" height="30" patternUnits="userSpaceOnUse" id="_x31_pt_white_45_xB0__stripes" viewBox="120.6 -150.6 30 30" overflow="visible">
        <path fill="none" d="M120.6-150.6h30v30h-30z"/>
        <path fill="none" stroke="#fff" stroke-linecap="square" stroke-miterlimit="10" d="M150.7-.7l119.8-119.8M120.7-.7l119.8-119.8M125.7-.7l119.8-119.8M130.7-.7l119.8-119.8M135.7-.7l119.8-119.8M140.7-.7l119.8-119.8M145.7-.7l119.8-119.8M150.7-.7l119.8-119.8M90.7-.7l119.8-119.8M95.7-.7l119.8-119.8M100.7-.7l119.8-119.8M105.7-.7l119.8-119.8M110.7-.7l119.8-119.8M115.7-.7l119.8-119.8M120.7-.7l119.8-119.8M125.7-.7l119.8-119.8M130.7-.7l119.8-119.8M135.7-.7l119.8-119.8M140.7-.7l119.8-119.8M145.7-.7l119.8-119.8M150.7-.7l119.8-119.8M60.7-.7l119.8-119.8M65.7-.7l119.8-119.8M70.7-.7l119.8-119.8M75.7-.7l119.8-119.8M80.7-.7l119.8-119.8M85.7-.7l119.8-119.8M90.7-.7l119.8-119.8M95.7-.7l119.8-119.8M100.7-.7l119.8-119.8M105.7-.7l119.8-119.8M110.7-.7l119.8-119.8M115.7-.7l119.8-119.8M120.7-.7l119.8-119.8M30.7-.7l119.8-119.8M35.7-.7l119.8-119.8M40.7-.7l119.8-119.8M45.7-.7l119.8-119.8M50.7-.7l119.8-119.8M55.7-.7l119.8-119.8M60.7-.7l119.8-119.8M65.7-.7l119.8-119.8M70.7-.7l119.8-119.8M75.7-.7l119.8-119.8M80.7-.7l119.8-119.8M85.7-.7l119.8-119.8M90.7-.7l119.8-119.8M.7-.7l119.8-119.8M5.7-.7l119.8-119.8M10.7-.7l119.8-119.8M15.7-.7l119.8-119.8M20.7-.7l119.8-119.8M25.7-.7l119.8-119.8M30.7-.7l119.8-119.8M35.7-.7l119.8-119.8M40.7-.7l119.8-119.8M45.7-.7l119.8-119.8M50.7-.7l119.8-119.8M55.7-.7l119.8-119.8M60.7-.7l119.8-119.8M.7-.7l119.8-119.8M5.7-.7l119.8-119.8M10.7-.7l119.8-119.8M15.7-.7l119.8-119.8M20.7-.7l119.8-119.8M25.7-.7l119.8-119.8M30.7-.7l119.8-119.8M.7-.7l119.8-119.8m30.2 89.8l119.8-119.8M120.7-30.7l119.8-119.8M125.7-30.7l119.8-119.8M130.7-30.7l119.8-119.8M135.7-30.7l119.8-119.8M140.7-30.7l119.8-119.8M145.7-30.7l119.8-119.8M150.7-30.7l119.8-119.8M90.7-30.7l119.8-119.8M95.7-30.7l119.8-119.8M100.7-30.7l119.8-119.8M105.7-30.7l119.8-119.8M110.7-30.7l119.8-119.8M115.7-30.7l119.8-119.8M120.7-30.7l119.8-119.8M125.7-30.7l119.8-119.8M130.7-30.7l119.8-119.8M135.7-30.7l119.8-119.8M140.7-30.7l119.8-119.8M145.7-30.7l119.8-119.8M150.7-30.7l119.8-119.8M60.7-30.7l119.8-119.8M65.7-30.7l119.8-119.8M70.7-30.7l119.8-119.8M75.7-30.7l119.8-119.8M80.7-30.7l119.8-119.8M85.7-30.7l119.8-119.8M90.7-30.7l119.8-119.8M95.7-30.7l119.8-119.8M100.7-30.7l119.8-119.8M105.7-30.7l119.8-119.8M110.7-30.7l119.8-119.8M115.7-30.7l119.8-119.8M120.7-30.7l119.8-119.8M30.7-30.7l119.8-119.8M35.7-30.7l119.8-119.8M40.7-30.7l119.8-119.8M45.7-30.7l119.8-119.8M50.7-30.7l119.8-119.8M55.7-30.7l119.8-119.8M60.7-30.7l119.8-119.8M65.7-30.7l119.8-119.8M70.7-30.7l119.8-119.8M75.7-30.7l119.8-119.8M80.7-30.7l119.8-119.8M85.7-30.7l119.8-119.8M90.7-30.7l119.8-119.8M.7-30.7l119.8-119.8M5.7-30.7l119.8-119.8M10.7-30.7l119.8-119.8M15.7-30.7l119.8-119.8M20.7-30.7l119.8-119.8M25.7-30.7l119.8-119.8M30.7-30.7l119.8-119.8M35.7-30.7l119.8-119.8M40.7-30.7l119.8-119.8M45.7-30.7l119.8-119.8M50.7-30.7l119.8-119.8M55.7-30.7l119.8-119.8M60.7-30.7l119.8-119.8M.7-30.7l119.8-119.8M5.7-30.7l119.8-119.8M10.7-30.7l119.8-119.8M15.7-30.7l119.8-119.8M20.7-30.7l119.8-119.8M25.7-30.7l119.8-119.8M30.7-30.7l119.8-119.8M.7-30.7l119.8-119.8m30.2 89.8l119.8-119.8M120.7-60.7l119.8-119.8M125.7-60.7l119.8-119.8M130.7-60.7l119.8-119.8M135.7-60.7l119.8-119.8M140.7-60.7l119.8-119.8M145.7-60.7l119.8-119.8M150.7-60.7l119.8-119.8M90.7-60.7l119.8-119.8M95.7-60.7l119.8-119.8M100.7-60.7l119.8-119.8M105.7-60.7l119.8-119.8M110.7-60.7l119.8-119.8M115.7-60.7l119.8-119.8M120.7-60.7l119.8-119.8M125.7-60.7l119.8-119.8M130.7-60.7l119.8-119.8M135.7-60.7l119.8-119.8M140.7-60.7l119.8-119.8M145.7-60.7l119.8-119.8M150.7-60.7l119.8-119.8M60.7-60.7l119.8-119.8M65.7-60.7l119.8-119.8M70.7-60.7l119.8-119.8M75.7-60.7l119.8-119.8M80.7-60.7l119.8-119.8M85.7-60.7l119.8-119.8M90.7-60.7l119.8-119.8M95.7-60.7l119.8-119.8M100.7-60.7l119.8-119.8M105.7-60.7l119.8-119.8M110.7-60.7l119.8-119.8M115.7-60.7l119.8-119.8M120.7-60.7l119.8-119.8M30.7-60.7l119.8-119.8M35.7-60.7l119.8-119.8M40.7-60.7l119.8-119.8M45.7-60.7l119.8-119.8M50.7-60.7l119.8-119.8M55.7-60.7l119.8-119.8M60.7-60.7l119.8-119.8M65.7-60.7l119.8-119.8M70.7-60.7l119.8-119.8M75.7-60.7l119.8-119.8M80.7-60.7l119.8-119.8M85.7-60.7l119.8-119.8M90.7-60.7l119.8-119.8M.7-60.7l119.8-119.8M5.7-60.7l119.8-119.8M10.7-60.7l119.8-119.8M15.7-60.7l119.8-119.8M20.7-60.7l119.8-119.8M25.7-60.7l119.8-119.8M30.7-60.7l119.8-119.8M35.7-60.7l119.8-119.8M40.7-60.7l119.8-119.8M45.7-60.7l119.8-119.8M50.7-60.7l119.8-119.8M55.7-60.7l119.8-119.8M60.7-60.7l119.8-119.8M.7-60.7l119.8-119.8M5.7-60.7l119.8-119.8M10.7-60.7l119.8-119.8M15.7-60.7l119.8-119.8M20.7-60.7l119.8-119.8M25.7-60.7l119.8-119.8M30.7-60.7l119.8-119.8M.7-60.7l119.8-119.8m30.2 89.8l119.8-119.8M120.7-90.7l119.8-119.8M125.7-90.7l119.8-119.8M130.7-90.7l119.8-119.8M135.7-90.7l119.8-119.8M140.7-90.7l119.8-119.8M145.7-90.7l119.8-119.8M150.7-90.7l119.8-119.8M90.7-90.7l119.8-119.8M95.7-90.7l119.8-119.8M100.7-90.7l119.8-119.8M105.7-90.7l119.8-119.8M110.7-90.7l119.8-119.8M115.7-90.7l119.8-119.8M120.7-90.7l119.8-119.8M125.7-90.7l119.8-119.8M130.7-90.7l119.8-119.8M135.7-90.7l119.8-119.8M140.7-90.7l119.8-119.8M145.7-90.7l119.8-119.8M150.7-90.7l119.8-119.8M60.7-90.7l119.8-119.8M65.7-90.7l119.8-119.8M70.7-90.7l119.8-119.8M75.7-90.7l119.8-119.8M80.7-90.7l119.8-119.8M85.7-90.7l119.8-119.8M90.7-90.7l119.8-119.8M95.7-90.7l119.8-119.8M100.7-90.7l119.8-119.8M105.7-90.7l119.8-119.8M110.7-90.7l119.8-119.8M115.7-90.7l119.8-119.8M120.7-90.7l119.8-119.8M30.7-90.7l119.8-119.8M35.7-90.7l119.8-119.8M40.7-90.7l119.8-119.8M45.7-90.7l119.8-119.8M50.7-90.7l119.8-119.8M55.7-90.7l119.8-119.8M60.7-90.7l119.8-119.8M65.7-90.7l119.8-119.8M70.7-90.7l119.8-119.8M75.7-90.7l119.8-119.8M80.7-90.7l119.8-119.8M85.7-90.7l119.8-119.8M90.7-90.7l119.8-119.8M.7-90.7l119.8-119.8M5.7-90.7l119.8-119.8M10.7-90.7l119.8-119.8M15.7-90.7l119.8-119.8M20.7-90.7l119.8-119.8M25.7-90.7l119.8-119.8M30.7-90.7l119.8-119.8M35.7-90.7l119.8-119.8M40.7-90.7l119.8-119.8M45.7-90.7l119.8-119.8M50.7-90.7l119.8-119.8M55.7-90.7l119.8-119.8M60.7-90.7l119.8-119.8M.7-90.7l119.8-119.8M5.7-90.7l119.8-119.8M10.7-90.7l119.8-119.8M15.7-90.7l119.8-119.8M20.7-90.7l119.8-119.8M25.7-90.7l119.8-119.8M30.7-90.7l119.8-119.8M.7-90.7l119.8-119.8m30.2 89.8l119.8-119.8M120.7-120.7l119.8-119.8M125.7-120.7l119.8-119.8M130.7-120.7l119.8-119.8M135.7-120.7l119.8-119.8M140.7-120.7l119.8-119.8M145.7-120.7l119.8-119.8M150.7-120.7l119.8-119.8M90.7-120.7l119.8-119.8M95.7-120.7l119.8-119.8M100.7-120.7l119.8-119.8M105.7-120.7l119.8-119.8M110.7-120.7l119.8-119.8M115.7-120.7l119.8-119.8M120.7-120.7l119.8-119.8M125.7-120.7l119.8-119.8M130.7-120.7l119.8-119.8M135.7-120.7l119.8-119.8M140.7-120.7l119.8-119.8M145.7-120.7l119.8-119.8M150.7-120.7l119.8-119.8M60.7-120.7l119.8-119.8M65.7-120.7l119.8-119.8M70.7-120.7l119.8-119.8M75.7-120.7l119.8-119.8M80.7-120.7l119.8-119.8M85.7-120.7l119.8-119.8M90.7-120.7l119.8-119.8M95.7-120.7l119.8-119.8M100.7-120.7l119.8-119.8M105.7-120.7l119.8-119.8M110.7-120.7l119.8-119.8M115.7-120.7l119.8-119.8M120.7-120.7l119.8-119.8M30.7-120.7l119.8-119.8M35.7-120.7l119.8-119.8M40.7-120.7l119.8-119.8M45.7-120.7l119.8-119.8M50.7-120.7l119.8-119.8M55.7-120.7l119.8-119.8M60.7-120.7l119.8-119.8M65.7-120.7l119.8-119.8M70.7-120.7l119.8-119.8M75.7-120.7l119.8-119.8M80.7-120.7l119.8-119.8M85.7-120.7l119.8-119.8M90.7-120.7l119.8-119.8M.7-120.7l119.8-119.8M5.7-120.7l119.8-119.8M10.7-120.7l119.8-119.8M15.7-120.7l119.8-119.8M20.7-120.7l119.8-119.8M25.7-120.7l119.8-119.8M30.7-120.7l119.8-119.8M35.7-120.7l119.8-119.8M40.7-120.7l119.8-119.8M45.7-120.7l119.8-119.8M50.7-120.7l119.8-119.8M55.7-120.7l119.8-119.8M60.7-120.7l119.8-119.8M.7-120.7l119.8-119.8M5.7-120.7l119.8-119.8M10.7-120.7l119.8-119.8M15.7-120.7l119.8-119.8M20.7-120.7l119.8-119.8M25.7-120.7l119.8-119.8M30.7-120.7l119.8-119.8M.7-120.7l119.8-119.8m30.2 89.8l119.8-119.8M120.7-150.7l119.8-119.8M125.7-150.7l119.8-119.8M130.7-150.7l119.8-119.8M135.7-150.7l119.8-119.8M140.7-150.7l119.8-119.8M145.7-150.7l119.8-119.8M150.7-150.7l119.8-119.8M90.7-150.7l119.8-119.8M95.7-150.7l119.8-119.8M100.7-150.7l119.8-119.8M105.7-150.7l119.8-119.8M110.7-150.7l119.8-119.8M115.7-150.7l119.8-119.8M120.7-150.7l119.8-119.8M125.7-150.7l119.8-119.8M130.7-150.7l119.8-119.8M135.7-150.7l119.8-119.8M140.7-150.7l119.8-119.8M145.7-150.7l119.8-119.8M150.7-150.7l119.8-119.8M60.7-150.7l119.8-119.8M65.7-150.7l119.8-119.8M70.7-150.7l119.8-119.8M75.7-150.7l119.8-119.8M80.7-150.7l119.8-119.8M85.7-150.7l119.8-119.8M90.7-150.7l119.8-119.8M95.7-150.7l119.8-119.8M100.7-150.7l119.8-119.8M105.7-150.7l119.8-119.8M110.7-150.7l119.8-119.8M115.7-150.7l119.8-119.8M120.7-150.7l119.8-119.8M30.7-150.7l119.8-119.8M35.7-150.7l119.8-119.8M40.7-150.7l119.8-119.8M45.7-150.7l119.8-119.8M50.7-150.7l119.8-119.8M55.7-150.7l119.8-119.8M60.7-150.7l119.8-119.8M65.7-150.7l119.8-119.8M70.7-150.7l119.8-119.8M75.7-150.7l119.8-119.8M80.7-150.7l119.8-119.8M85.7-150.7l119.8-119.8M90.7-150.7l119.8-119.8M.7-150.7l119.8-119.8M5.7-150.7l119.8-119.8M10.7-150.7l119.8-119.8M15.7-150.7l119.8-119.8M20.7-150.7l119.8-119.8M25.7-150.7l119.8-119.8M30.7-150.7l119.8-119.8M35.7-150.7l119.8-119.8M40.7-150.7l119.8-119.8M45.7-150.7l119.8-119.8M50.7-150.7l119.8-119.8M55.7-150.7l119.8-119.8M60.7-150.7l119.8-119.8M.7-150.7l119.8-119.8M5.7-150.7l119.8-119.8M10.7-150.7l119.8-119.8M15.7-150.7l119.8-119.8M20.7-150.7l119.8-119.8M25.7-150.7l119.8-119.8M30.7-150.7l119.8-119.8M.7-150.7l119.8-119.8"/>
    </pattern>
    <path id="Slipp_1_" d="M46 10l-5.5 10.8s-5.9-4.1-12-4.1c-4.6 0-7.1 2.1-7.1 5.3 0 3.3 5.6 5.7 12.4 8.6 6.6 2.8 13.9 8.4 13.9 16.2C47.7 61 36.9 66 25.4 66 11.5 66 3 58.1 3 58.1l6.8-11.4s7.9 6.7 14.5 6.7c3 0 8.6-.3 8.6-5.8 0-4.3-6.3-6.3-13.4-9.8-7.1-3.5-11.3-9.1-11.3-15.3C8.2 11.4 18 4.4 27.6 4.4 38.4 4.4 46 10 46 10zm8.1-7.1h12.7v61.9H54.1V2.9zm35.5 9.8c0 4.2-3.4 7.6-7.6 7.6s-7.6-3.4-7.6-7.6 3.4-7.6 7.6-7.6 7.6 3.4 7.6 7.6zM75.5 64.9h12.7v-37H75.5v37zM122 66c-5 0-9.1-1.7-12.1-4.6v22.2H97.2V27.9h12.6v4.2h.1c2.7-3 7.1-5.3 12.1-5.3 10.8 0 18.4 8.7 18.4 19.5 0 10.9-7.6 19.7-18.4 19.7zm-3.8-28.3c-5 0-8.6 3.6-8.6 8.6 0 5.1 3.8 8.7 8.6 8.7s8.6-3.6 8.6-8.7c.1-5-3.4-8.6-8.6-8.6zm53 28.3c-5 0-9.1-1.7-12.1-4.6v22.2h-12.7V27.9H159v4.2h.1c2.7-3 7.1-5.3 12.1-5.3 10.8 0 18.4 8.7 18.4 19.5 0 10.9-7.6 19.7-18.4 19.7zm-3.8-28.3c-5 0-8.6 3.6-8.6 8.6 0 5.1 3.8 8.7 8.6 8.7s8.6-3.6 8.6-8.7c0-5-3.4-8.6-8.6-8.6z" fill="url(#_x31_pt_white_45_xB0__stripes)"/>
</svg>
