<svg xmlns="http://www.w3.org/2000/svg" width="192" height="86" viewBox="0 0 192 86">
    <g id="borders">
        <g id="Slipp">
            <path id="border-united" d="M167.4 36.7c-5.5 0-9.6 4.1-9.6 9.6s4.1 9.7 9.6 9.7 9.6-4.2 9.6-9.7c0-5.6-3.9-9.6-9.6-9.6zm0 16.4c-3.8 0-6.6-2.8-6.6-6.7 0-3.9 2.7-6.6 6.6-6.6 4 0 6.6 2.6 6.6 6.6 0 3.9-2.7 6.7-6.6 6.7zm-49.2-16.4c-5.5 0-9.6 4.1-9.6 9.6s4.1 9.7 9.6 9.7 9.6-4.2 9.6-9.7c.1-5.6-3.9-9.6-9.6-9.6zm0 16.4c-3.8 0-6.6-2.8-6.6-6.7 0-3.9 2.7-6.6 6.6-6.6 4 0 6.6 2.6 6.6 6.6.1 3.9-2.7 6.7-6.6 6.7zm3.9-28.2c-3.7 0-7.1 1.1-10.1 3V26H95v60h17V65.4c3 1.7 6.3 2.6 10.1 2.6 11.6 0 20.4-9.3 20.4-21.6s-8.7-21.5-20.4-21.5zM122 65c-4.6 0-8.5-1.5-11.4-4.3L109 59v24H98V29h11v4h1.3l.3-.3c2.8-3.1 7-4.9 11.4-4.9 9.9 0 17.4 8 17.4 18.5C139.4 57 131.9 65 122 65zM34.6 28.8c-5-2.1-11.2-4.8-11.2-6.7 0-2.8 2.7-3.3 5.1-3.3 5.4 0 10.8 3.7 10.9 3.7l1.9 1.3 1-2L47.8 11l.8-1.5-1.4-1c-.3-.2-8.3-6-19.6-6-10.3 0-21.4 7.7-21.4 20.1 0 6.9 4.5 13.2 12.4 17.1 1.4.7 2.7 1.3 3.9 1.9 4.5 2.1 8.3 3.9 8.3 6.1 0 2-.8 3.8-6.6 3.8-4.8 0-11.2-4.5-13.3-6.2l-1.8-1.5-1.2 2-6.6 11.3-.8 1.4 1.2 1.1c.3.3 9.1 8.4 23.7 8.4 15.3 0 24.4-7.9 24.4-21.2-.1-10.8-11.6-16.5-15.2-18zM25.4 65c-11.3 0-18.9-5.4-21-7.1l5.7-9.7c2.3 1.8 8.6 6.2 14.3 6.2 6.3 0 9.6-2.3 9.6-6.8 0-4.1-4.4-6.2-10.1-8.8-1.3-.6-2.5-1.2-3.9-1.9-6.8-3.4-10.7-8.6-10.7-14.4 0-10.6 9.5-17.1 18.4-17.1 8.5 0 15.1 3.6 17.1 5l-4.6 9c-2-1.2-6.7-3.7-11.6-3.7-5 0-8.1 2.4-8.1 6.3 0 4 5.7 6.4 12.9 9.5h.1c3.1 1.3 13.3 6.3 13.3 15.3-.1 16.4-15 18.2-21.4 18.2zm145.8-40.1c-3.7 0-7.2 1.1-10.2 3V26h-17v60h17V65.4c3 1.7 6.4 2.6 10.2 2.6 11.6 0 20.4-9.3 20.4-21.6s-8.8-21.5-20.4-21.5zm0 40.1c-4.6 0-8.6-1.5-11.5-4.3L158 59v24h-11V29h11v4h1.5l.3-.3c2.8-3.1 7-4.9 11.4-4.9 9.9 0 17.4 8 17.4 18.5 0 10.7-7.5 18.7-17.4 18.7zM82 3.1c-5.3 0-9.6 4.3-9.6 9.6s4.3 9.6 9.6 9.6 9.6-4.3 9.6-9.6-4.3-9.6-9.6-9.6zm0 16.1c-3.6 0-6.6-2.9-6.6-6.6S78.3 6 82 6s6.6 2.9 6.6 6.6-3 6.6-6.6 6.6zM54.1 1H52v66h17V1H54.1zm.9 63V4h11v60H55zm20.5-38H73v41h17V26H75.5zm.5 38V29h11v35H76z" fill="#fff"/>
        </g>
    </g>
</svg>
